<?xml version="1.0" encoding="UTF-8"?>
<svg id="Layer_1" xmlns="http://www.w3.org/2000/svg" version="1.1" viewBox="0 0 541.2 155.44">
  <!-- Generator: Adobe Illustrator 30.3.0, SVG Export Plug-In . SVG Version: 2.1.3 Build 182)  -->
  <defs>
    <style>
      .st0 {
        fill: #fff;
      }
    </style>
  </defs>
  <g>
    <path class="st0" d="M178.22,110.71c-7.58-8.57-11.43-18.75-11.43-30.8s3.85-22.11,11.43-30.55c7.58-8.57,17.51-12.79,29.81-12.79,16.39,0,28.44,7.33,36.27,21.86l-16.52,10.43c-4.97-8.82-11.92-14.9-19.75-14.9-6.58,0-11.68,2.61-15.28,7.7-3.6,5.09-5.46,11.18-5.46,18.26s1.86,13.16,5.46,18.38c3.6,5.22,8.69,7.83,15.28,7.83,7.95,0,15.65-5.59,19.75-13.91l16.64,10.56c-7.33,13.79-19.5,20.74-36.39,20.74-12.3,0-22.23-4.22-29.81-12.79Z"/>
    <path class="st0" d="M258.58,54.07v-16.27h18.01v16.27h-18.01ZM258.58,122.26v-62.1h18.01v62.1h-18.01Z"/>
    <g>
      <path class="st0" d="M297.78,122.8V37.76h61.4v16.76h-42.02v18.76h34.51v16.76h-34.51v32.76h-19.38Z"/>
      <path class="st0" d="M378.94,122.8h-19.26l29.51-85.04h24.14l29.51,85.04h-19.26l-5.38-15.76h-33.89l-5.38,15.76ZM389.82,90.78h22.88l-11.38-33.64-11.5,33.64Z"/>
      <path class="st0" d="M454.6,122.8V37.76h33.14c12.38,0,22.38,3.88,30.01,11.76,7.63,7.75,11.5,18.01,11.5,30.64s-3.88,23.01-11.5,30.89c-7.63,7.88-17.63,11.76-30.01,11.76h-33.14ZM473.99,55.27v50.02h13.76c12.38,0,20.88-9.75,20.88-25.14s-8.38-24.89-20.88-24.89h-13.76Z"/>
    </g>
  </g>
  <g>
    <path class="st0" d="M135.17,67.84l-49.34-49.34-49.34,49.34c-1.19,1.19-2.18,2.52-2.98,3.94h35.22c10.25,0,18.58,8.34,18.58,18.58v51.21l47.86-47.86c7.13-7.13,7.13-18.74,0-25.87Z"/>
    <path class="st0" d="M30.63,141.13h50.77v-50.77c0-6.99-5.69-12.67-12.67-12.67H17.95v50.77c0,6.99,5.69,12.67,12.67,12.67Z"/>
  </g>
</svg>