<?xml version="1.0" encoding="UTF-8"?>
<svg id="Capa_1" xmlns="http://www.w3.org/2000/svg" version="1.1" viewBox="0 0 754.54 276.99">
  <!-- Generator: Adobe Illustrator 30.2.1, SVG Export Plug-In . SVG Version: 2.1.1 Build 1)  -->
  <defs>
    <style>
      .st0 {
        stroke: #939598;
        stroke-miterlimit: 10;
        stroke-width: 3px;
      }

      .st0, .st1 {
        fill: #f7941d;
      }

      .st2 {
        fill: #21409a;
      }
    </style>
  </defs>
  <g>
    <path class="st1" d="M29.35,231.89c-7.58-8.57-11.43-18.75-11.43-30.8s3.85-22.11,11.43-30.55c7.58-8.57,17.51-12.79,29.81-12.79,16.39,0,28.44,7.33,36.27,21.86l-16.52,10.43c-4.97-8.82-11.92-14.9-19.75-14.9-6.58,0-11.68,2.61-15.28,7.7-3.6,5.09-5.46,11.18-5.46,18.26s1.86,13.16,5.46,18.38c3.6,5.22,8.69,7.83,15.28,7.83,7.95,0,15.65-5.59,19.75-13.91l16.64,10.56c-7.33,13.79-19.5,20.74-36.39,20.74-12.3,0-22.23-4.22-29.81-12.79Z"/>
    <path class="st1" d="M109.71,175.25v-16.27h18.01v16.27h-18.01ZM109.71,243.44v-62.1h18.01v62.1h-18.01Z"/>
    <g>
      <path class="st1" d="M148.91,243.97v-85.04h61.4v16.76h-42.02v18.76h34.51v16.76h-34.51v32.76h-19.38Z"/>
      <path class="st1" d="M230.08,243.97h-19.26l29.51-85.04h24.14l29.51,85.04h-19.26l-5.38-15.76h-33.89l-5.38,15.76ZM240.95,211.96h22.88l-11.38-33.64-11.5,33.64Z"/>
      <path class="st1" d="M305.73,243.97v-85.04h33.14c12.38,0,22.38,3.88,30.01,11.76,7.63,7.75,11.5,18.01,11.5,30.64s-3.88,23.01-11.5,30.89c-7.63,7.88-17.63,11.76-30.01,11.76h-33.14ZM325.12,176.45v50.02h13.76c12.38,0,20.88-9.75,20.88-25.14s-8.38-24.89-20.88-24.89h-13.76Z"/>
    </g>
  </g>
  <line class="st0" x1="407.48" y1="157.74" x2="407.48" y2="258.12"/>
  <g>
    <path class="st1" d="M434.15,168.47v-6.53h33.33v6.53h-12.84v29.56h-7.59v-29.56h-12.9Z"/>
    <path class="st1" d="M478.36,171.13c7.8,0,13,5.09,13.59,13.75.05.8.05,2.12.05,2.92h-19.32c.69,2.49,3.18,4.67,6.31,4.67,2.76,0,5.15-1.59,6.26-3.45l5.57,2.76c-2.39,4.03-6.32,6.74-11.89,6.74-8.97,0-14.01-6.16-14.01-13.75s6.21-13.64,13.43-13.64ZM484.41,182.59c-.27-2.76-2.39-5.36-5.73-5.36s-5.52,2.44-6.1,5.36h11.83Z"/>
    <path class="st1" d="M495.5,184.76c0-7.43,6.05-13.64,13.69-13.64,5.73,0,9.98,2.97,11.89,7.38l-5.57,3.34c-1.01-2.18-3.13-4.4-6.26-4.4-4.4,0-6.47,3.82-6.47,7.32s2.07,7.43,6.47,7.43c3.18,0,5.41-2.49,6.42-4.78l5.52,3.34c-1.86,4.67-6.1,7.75-11.99,7.75-7.64,0-13.69-6.16-13.69-13.75Z"/>
    <path class="st1" d="M525.86,171.6h7.06v2.97c1.96-2.07,4.62-3.45,8.28-3.45,4.99,0,8.76,3.82,8.76,8.7v18.2h-7.27v-15.39c0-4.03-2.18-4.83-4.09-4.83-2.12,0-4.03,1.11-5.68,3.18v17.04h-7.06v-26.43Z"/>
    <path class="st1" d="M568.69,171.13c7.43,0,13.64,6.21,13.64,13.64s-6.21,13.8-13.64,13.8-13.75-6.16-13.75-13.8,6.16-13.64,13.75-13.64ZM568.74,192.25c4.3,0,6.26-3.93,6.26-7.48s-1.96-7.32-6.26-7.32-6.53,3.87-6.53,7.32,2.12,7.48,6.53,7.48Z"/>
    <path class="st1" d="M587.21,161.94h7.06v36.09h-7.06v-36.09Z"/>
    <path class="st1" d="M613,171.13c7.43,0,13.64,6.21,13.64,13.64s-6.21,13.8-13.64,13.8-13.75-6.16-13.75-13.8,6.16-13.64,13.75-13.64ZM613.05,192.25c4.3,0,6.26-3.93,6.26-7.48s-1.96-7.32-6.26-7.32-6.53,3.87-6.53,7.32,2.12,7.48,6.53,7.48Z"/>
    <path class="st1" d="M642.3,171.13c3.4,0,5.73,1.27,7.38,3.02v-2.55h7.06v22.18c0,8.17-4.56,13.8-13.8,13.8-3.56,0-7.01-.8-9.18-1.7v-6.53c2.07.8,5.09,1.86,8.33,1.86,5.09,0,7.59-2.44,7.59-6.47v-1.33c-1.65,1.7-3.98,2.97-7.38,3.03-7.38,0-12.21-5.73-12.21-12.74s4.83-12.58,12.21-12.58ZM637.36,183.7c0,3.08,1.86,6.16,5.94,6.16,2.71,0,5.2-1.91,6.37-3.24v-5.31c-1.22-1.86-3.66-3.61-6.37-3.61-4.09,0-5.94,2.97-5.94,6Z"/>
    <path class="st1" d="M664.75,161.94h8.17l-6.42,7.27h-6.1l4.35-7.27ZM663.1,171.6h7.06v26.43h-7.06v-26.43Z"/>
    <path class="st1" d="M675.1,190.5c0-5.62,4.62-8.23,10.51-8.23l5.94-.05v-.85c0-3.18-2.44-4.4-5.09-4.4s-5.31,1.75-6.79,3.08l-3.24-4.56c3.18-3.34,6.95-4.35,11.41-4.35,5.89,0,10.77,3.56,10.77,9.13v17.78h-7.06v-2.12c-1.86,1.65-4.09,2.6-7.32,2.6-4.88,0-9.13-2.49-9.13-8.01ZM682.42,189.97c0,2.18,1.8,3.02,3.87,3.02,2.55,0,4.03-1.17,5.25-2.87v-3.03h-5.09c-2.18,0-4.03.58-4.03,2.87Z"/>
    <path class="st1" d="M712.93,198.51c-2.97,0-6.05-.69-8.76-1.54v-6.32c2.18.8,5.68,1.8,8.86,1.8s4.67-.96,4.67-2.18c0-3.34-14.12-1.54-14.12-11.09,0-5.09,5.15-8.12,10.77-8.12,4.62,0,7.22.9,8.76,1.59v6.05c-1.65-.8-4.51-1.86-7.69-1.86-2.49,0-4.56.85-4.56,2.49,0,3.18,14.01,1.38,14.01,10.4,0,5.94-4.72,8.76-11.94,8.76Z"/>
    <path class="st1" d="M462.65,206.95v6.53h-18.52v8.7h15.34v6.53h-15.34v7.8h18.52v6.53h-26.06v-36.09h26.06Z"/>
    <path class="st1" d="M467.64,243.03v-26.43h7.06v2.97c1.91-2.07,4.4-3.45,7.64-3.45s5.73,1.64,7.16,4.35c2.07-2.49,4.94-4.35,8.7-4.35,4.67,0,8.23,3.77,8.23,8.6v18.31h-7.32v-15.87c0-3.66-1.86-4.35-3.4-4.35-1.86,0-3.66.85-5.09,2.18v18.04h-7.32v-15.87c0-3.66-1.86-4.35-3.4-4.35-1.96,0-3.77,1.01-5.2,2.44v17.78h-7.06Z"/>
    <path class="st1" d="M524.27,216.13c7.8,0,13,5.09,13.59,13.75.05.8.05,2.12.05,2.92h-19.32c.69,2.49,3.18,4.67,6.31,4.67,2.76,0,5.15-1.59,6.26-3.45l5.57,2.76c-2.39,4.03-6.32,6.74-11.89,6.74-8.97,0-14.01-6.16-14.01-13.75s6.21-13.64,13.43-13.64ZM530.32,227.59c-.27-2.76-2.39-5.36-5.73-5.36s-5.52,2.44-6.1,5.36h11.83Z"/>
    <path class="st1" d="M549.37,216.61v3.34c1.86-2.28,4.35-3.66,7.48-3.66,1.01,0,1.91.11,2.81.37v6.85c-.85-.21-1.7-.32-2.6-.32-3.24,0-6.16,1.49-7.7,4.03v15.81h-7.06v-26.43h7.06Z"/>
    <path class="st1" d="M573.99,216.13c3.4,0,5.73,1.27,7.38,3.02v-2.55h7.06v22.18c0,8.17-4.56,13.8-13.8,13.8-3.56,0-7.01-.8-9.18-1.7v-6.53c2.07.8,5.09,1.86,8.33,1.86,5.09,0,7.59-2.44,7.59-6.47v-1.33c-1.65,1.7-3.98,2.97-7.38,3.03-7.38,0-12.21-5.73-12.21-12.74s4.83-12.58,12.21-12.58ZM569.06,228.7c0,3.08,1.86,6.16,5.94,6.16,2.71,0,5.2-1.91,6.37-3.24v-5.31c-1.22-1.86-3.66-3.61-6.37-3.61-4.09,0-5.94,2.97-5.94,6Z"/>
    <path class="st1" d="M606.26,216.13c7.8,0,13,5.09,13.59,13.75.05.8.05,2.12.05,2.92h-19.32c.69,2.49,3.18,4.67,6.31,4.67,2.76,0,5.15-1.59,6.26-3.45l5.57,2.76c-2.39,4.03-6.32,6.74-11.89,6.74-8.97,0-14.01-6.16-14.01-13.75s6.21-13.64,13.43-13.64ZM612.31,227.59c-.27-2.76-2.39-5.36-5.73-5.36s-5.52,2.44-6.1,5.36h11.83Z"/>
    <path class="st1" d="M624.31,216.61h7.06v2.97c1.96-2.07,4.62-3.45,8.28-3.45,4.99,0,8.76,3.82,8.76,8.7v18.2h-7.27v-15.39c0-4.03-2.18-4.83-4.09-4.83-2.12,0-4.03,1.11-5.68,3.18v17.04h-7.06v-26.43Z"/>
    <path class="st1" d="M654.29,206.95h7.06v9.66h8.07v6.05h-8.07v8.97c0,3.34.69,5.36,3.61,5.36.85,0,3.87-.16,4.46-.32v6.37c-1.27.27-4.4.48-5.36.48-6.85-.05-9.76-4.3-9.76-11.94v-24.62Z"/>
    <path class="st1" d="M685.71,216.13c7.8,0,13,5.09,13.59,13.75.05.8.05,2.12.05,2.92h-19.32c.69,2.49,3.18,4.67,6.31,4.67,2.76,0,5.15-1.59,6.26-3.45l5.57,2.76c-2.39,4.03-6.32,6.74-11.89,6.74-8.97,0-14.01-6.16-14.01-13.75s6.21-13.64,13.43-13.64ZM691.76,227.59c-.27-2.76-2.39-5.36-5.73-5.36s-5.52,2.44-6.1,5.36h11.83Z"/>
    <path class="st1" d="M711.66,243.51c-2.97,0-6.05-.69-8.76-1.54v-6.32c2.18.8,5.68,1.8,8.86,1.8s4.67-.96,4.67-2.18c0-3.34-14.12-1.54-14.12-11.09,0-5.09,5.15-8.12,10.77-8.12,4.62,0,7.22.9,8.76,1.59v6.05c-1.65-.8-4.51-1.86-7.69-1.86-2.49,0-4.56.85-4.56,2.49,0,3.18,14.01,1.38,14.01,10.4,0,5.94-4.72,8.76-11.94,8.76Z"/>
  </g>
  <g>
    <path class="st2" d="M139.3,61.98L89.95,12.64l-49.34,49.34c-1.19,1.19-2.18,2.52-2.98,3.94h35.22c10.25,0,18.58,8.34,18.58,18.58v51.21l47.86-47.86c7.13-7.13,7.13-18.74,0-25.87Z"/>
    <path class="st1" d="M34.76,135.27h50.77v-50.77c0-6.99-5.69-12.67-12.67-12.67H22.08v50.77c0,6.99,5.69,12.67,12.67,12.67Z"/>
  </g>
</svg>